<svg width="207" height="188" viewBox="0 0 207 188" fill="none" xmlns="http://www.w3.org/2000/svg">
<path d="M33.8398 42.112C33.8398 34.221 40.2368 27.824 48.1278 27.824H148.896C156.787 27.824 163.184 34.221 163.184 42.112V143.632C163.184 151.523 156.787 157.92 148.896 157.92H48.1278C40.2368 157.92 33.8398 151.523 33.8398 143.632V42.112Z" fill="#D4E1F1"/>
<path fill-rule="evenodd" clip-rule="evenodd" d="M157.92 20.304H48.1279C41.0675 20.304 35.3439 26.0276 35.3439 33.088V143.632C35.3439 150.692 41.0675 156.416 48.1279 156.416H157.92C164.98 156.416 170.704 150.692 170.704 143.632V33.088C170.704 26.0276 164.98 20.304 157.92 20.304ZM48.1279 17.296C39.4063 17.296 32.3359 24.3663 32.3359 33.088V143.632C32.3359 152.354 39.4063 159.424 48.1279 159.424H157.92C166.642 159.424 173.712 152.354 173.712 143.632V33.088C173.712 24.3663 166.642 17.296 157.92 17.296H48.1279Z" fill="#6A9BD9"/>
<path d="M89.4882 80.4641C89.4882 84.6173 86.1214 87.9841 81.9682 87.9841C77.8151 87.9841 74.4482 84.6173 74.4482 80.4641C74.4482 76.3109 77.8151 72.9441 81.9682 72.9441C86.1214 72.9441 89.4882 76.3109 89.4882 80.4641Z" fill="#6A9BD9"/>
<path fill-rule="evenodd" clip-rule="evenodd" d="M88.6566 54.3028C87.9136 53.9313 87.0102 54.2325 86.6387 54.9754C84.2668 59.7193 76.3592 69.184 63.92 69.184C63.0893 69.184 62.416 69.8574 62.416 70.688C62.416 71.5187 63.0893 72.192 63.92 72.192C77.9511 72.192 86.6878 61.6035 89.3292 56.3206C89.7006 55.5777 89.3995 54.6743 88.6566 54.3028Z" fill="#6A9BD9"/>
<path d="M116.56 80.4642C116.56 84.6173 119.926 87.9842 124.08 87.9842C128.233 87.9842 131.6 84.6173 131.6 80.4642C131.6 76.311 128.233 72.9442 124.08 72.9442C119.926 72.9442 116.56 76.311 116.56 80.4642Z" fill="#6A9BD9"/>
<path fill-rule="evenodd" clip-rule="evenodd" d="M117.391 54.3029C118.134 53.9314 119.038 54.2326 119.409 54.9755C121.781 59.7193 129.689 69.1841 142.128 69.1841C142.959 69.1841 143.632 69.8575 143.632 70.6881C143.632 71.5187 142.959 72.1921 142.128 72.1921C128.097 72.1921 119.36 61.6035 116.719 56.3207C116.347 55.5778 116.648 54.6744 117.391 54.3029Z" fill="#6A9BD9"/>
<path fill-rule="evenodd" clip-rule="evenodd" d="M88.9961 109.709C88.2111 109.438 87.7951 108.581 88.0668 107.796L89.488 108.288C88.0668 107.796 88.067 107.795 88.0673 107.795L88.0692 107.789L88.0729 107.779L88.0843 107.747C88.0936 107.721 88.1065 107.686 88.123 107.643C88.156 107.556 88.2036 107.435 88.2668 107.285C88.393 106.985 88.5819 106.566 88.8406 106.067C89.3565 105.074 90.1594 103.747 91.3118 102.416C93.6285 99.7388 97.3977 97.008 103.024 97.008C108.65 97.008 112.42 99.7388 114.736 102.416C115.889 103.747 116.692 105.074 117.207 106.067C117.466 106.566 117.655 106.985 117.781 107.285C117.844 107.435 117.892 107.556 117.925 107.643C117.942 107.686 117.954 107.721 117.964 107.747L117.975 107.779L117.979 107.789L117.98 107.793L117.981 107.795C117.981 107.795 117.981 107.796 116.603 108.273L117.981 107.796C118.253 108.581 117.837 109.438 117.052 109.709C116.268 109.981 115.413 109.566 115.14 108.783C115.14 108.782 115.139 108.781 115.139 108.78L116.56 108.288C115.139 108.78 115.139 108.781 115.139 108.781L115.14 108.783L115.136 108.773C115.132 108.762 115.125 108.742 115.114 108.713C115.092 108.657 115.058 108.568 115.008 108.451C114.91 108.216 114.755 107.872 114.538 107.454C114.102 106.614 113.424 105.497 112.462 104.384C110.548 102.173 107.55 100.016 103.024 100.016C98.4984 100.016 95.4996 102.173 93.5863 104.384C92.6237 105.497 91.9461 106.614 91.5102 107.454C91.2931 107.872 91.1383 108.216 91.0398 108.451C90.9906 108.568 90.9556 108.657 90.9341 108.713C90.9233 108.742 90.9159 108.762 90.9118 108.773L90.9093 108.78C90.9092 108.78 90.909 108.781 90.9089 108.781C90.9088 108.781 90.9087 108.782 90.9086 108.782C90.9084 108.783 90.9083 108.783 90.9082 108.783C90.6352 109.566 89.7799 109.981 88.9961 109.709Z" fill="#6A9BD9"/>
<path fill-rule="evenodd" clip-rule="evenodd" d="M0.440511 118.505C1.02786 117.917 1.98014 117.917 2.56749 118.505L12.7195 128.657C13.3068 129.244 13.3068 130.196 12.7195 130.783C12.1321 131.371 11.1799 131.371 10.5925 130.783L0.440511 120.631C-0.146837 120.044 -0.146837 119.092 0.440511 118.505Z" fill="#7CA9E2"/>
<path fill-rule="evenodd" clip-rule="evenodd" d="M191.448 162.121C192.036 161.533 192.988 161.533 193.575 162.121L201.847 170.393C202.435 170.98 202.435 171.932 201.847 172.519C201.26 173.107 200.308 173.107 199.72 172.519L191.448 164.247C190.861 163.66 190.861 162.708 191.448 162.121Z" fill="#7CA9E2"/>
<path fill-rule="evenodd" clip-rule="evenodd" d="M0.440511 130.783C1.02786 131.371 1.98014 131.371 2.56749 130.783L12.7195 120.631C13.3068 120.044 13.3068 119.092 12.7195 118.505C12.1321 117.917 11.1799 117.917 10.5925 118.505L0.440511 128.657C-0.146837 129.244 -0.146837 130.196 0.440511 130.783Z" fill="#7CA9E2"/>
<path fill-rule="evenodd" clip-rule="evenodd" d="M191.448 172.519C192.036 173.107 192.988 173.107 193.575 172.519L201.847 164.247C202.435 163.66 202.435 162.708 201.847 162.121C201.26 161.533 200.308 161.533 199.72 162.121L191.448 170.393C190.861 170.98 190.861 171.932 191.448 172.519Z" fill="#7CA9E2"/>
<path opacity="0.36" fill-rule="evenodd" clip-rule="evenodd" d="M85.2872 0.440511C84.6999 -0.146837 83.7476 -0.146837 83.1602 0.440511C82.5729 1.02786 82.5729 1.98014 83.1602 2.56749L85.8568 5.26402L83.1603 7.96052C82.5729 8.54787 82.5729 9.50015 83.1603 10.0875C83.7476 10.6748 84.6999 10.6748 85.2872 10.0875L87.9837 7.391L90.6802 10.0875C91.2676 10.6748 92.2199 10.6748 92.8072 10.0875C93.3946 9.50014 93.3946 8.54786 92.8072 7.96051L90.1107 5.26402L92.8072 2.5675C93.3946 1.98015 93.3946 1.02787 92.8072 0.440519C92.2199 -0.146829 91.2676 -0.146829 90.6803 0.440519L87.9837 3.13704L85.2872 0.440511Z" fill="#7CA9E2"/>
<path opacity="0.36" fill-rule="evenodd" clip-rule="evenodd" d="M16.5443 69.936C17.7902 69.936 18.8003 68.926 18.8003 67.68C18.8003 66.434 17.7902 65.424 16.5443 65.424C15.2983 65.424 14.2883 66.434 14.2883 67.68C14.2883 68.926 15.2983 69.936 16.5443 69.936ZM16.5443 72.944C19.4515 72.944 21.8083 70.5872 21.8083 67.68C21.8083 64.7728 19.4515 62.416 16.5443 62.416C13.637 62.416 11.2803 64.7728 11.2803 67.68C11.2803 70.5872 13.637 72.944 16.5443 72.944Z" fill="#6A9BD9"/>
<path d="M137.616 181.984C137.616 185.307 134.923 188 131.6 188C128.277 188 125.584 185.307 125.584 181.984C125.584 178.661 128.277 175.968 131.6 175.968C134.923 175.968 137.616 178.661 137.616 181.984Z" fill="#EEEEEE"/>
<path fill-rule="evenodd" clip-rule="evenodd" d="M131.6 184.992C133.261 184.992 134.608 183.645 134.608 181.984C134.608 180.323 133.261 178.976 131.6 178.976C129.939 178.976 128.592 180.323 128.592 181.984C128.592 183.645 129.939 184.992 131.6 184.992ZM131.6 188C134.923 188 137.616 185.307 137.616 181.984C137.616 178.661 134.923 175.968 131.6 175.968C128.277 175.968 125.584 178.661 125.584 181.984C125.584 185.307 128.277 188 131.6 188Z" fill="#6A9BD9"/>
<path opacity="0.36" fill-rule="evenodd" clip-rule="evenodd" d="M189.023 54.0633C188.486 54.2802 188.385 54.9967 188.841 55.3531L198.592 62.9713C199.048 63.3277 199.719 63.0567 199.8 62.4834L201.522 50.2301C201.602 49.6568 201.032 49.2113 200.496 49.4282L189.023 54.0633ZM197.999 53.6809L193.772 55.3886L197.365 58.1953L197.999 53.6809Z" fill="#7CA9E2"/>
<path fill-rule="evenodd" clip-rule="evenodd" d="M11.9124 158.901C11.3756 159.118 11.2749 159.835 11.7311 160.191L20.1928 166.802C20.649 167.159 21.3199 166.888 21.4005 166.314L22.8951 155.681C22.9757 155.108 22.4055 154.662 21.8687 154.879L11.9124 158.901ZM19.3725 159.132L16.6621 160.227L18.9656 162.026L19.3725 159.132Z" fill="#7CA9E2"/>
</svg>
