<svg width="18" height="18" viewBox="0 0 18 18" fill="none" xmlns="http://www.w3.org/2000/svg">
<path d="M8.16663 0.666748C12.3066 0.666748 15.6666 4.02675 15.6666 8.16675C15.6666 12.3067 12.3066 15.6667 8.16663 15.6667C4.02663 15.6667 0.666626 12.3067 0.666626 8.16675C0.666626 4.02675 4.02663 0.666748 8.16663 0.666748ZM8.16663 14.0001C11.3891 14.0001 14 11.3892 14 8.16675C14 4.94341 11.3891 2.33341 8.16663 2.33341C4.94329 2.33341 2.33329 4.94341 2.33329 8.16675C2.33329 11.3892 4.94329 14.0001 8.16663 14.0001ZM15.2375 14.0592L17.595 16.4159L16.4158 17.5951L14.0591 15.2376L15.2375 14.0592Z" fill="#212121"/>
</svg>
